<?xml version="1.0" encoding="utf-8"?>
<!-- Generator: Adobe Illustrator 19.1.0, SVG Export Plug-In . SVG Version: 6.00 Build 0)  -->
<svg version="1.1" id="Layer_1" xmlns="http://www.w3.org/2000/svg" xmlns:xlink="http://www.w3.org/1999/xlink" x="0px" y="0px"
	 viewBox="0 0 232.5 157.9" style="enable-background:new 0 0 232.5 157.9;" xml:space="preserve">
<style type="text/css">
	.st0{fill:#FFFFFF;}
</style>
<g>
	<path class="st0" d="M118.4,39.5V0H0v118.4h114v39.5h118.4V39.5H118.4z M114.2,49.5v6.4H97v8.2h14.9v6.1H97V85h-7.8V75
		c-0.2,2.9-1.4,5.3-3.7,7.3c-2.5,2.1-6,3.2-10.6,3.2c-4.7,0-8.3-1.1-11-3.2c-2.7-2.1-4-5-4-8.7h7.1c0.2,1.6,0.7,2.8,1.4,3.6
		c1.2,1.5,3.3,2.2,6.3,2.2c1.8,0,3.2-0.2,4.3-0.6c2.1-0.7,3.2-2.1,3.2-4.1c0-1.2-0.5-2.1-1.6-2.7c-1-0.6-2.7-1.2-4.9-1.7l-3.8-0.8
		c-3.8-0.8-6.4-1.7-7.8-2.7c-0.2-0.1-0.4-0.3-0.5-0.4c-2.7,2.5-6.4,3.9-10.7,3.9c-10.5,0-16.9-7.5-17.5-17.1V56
		c0,9.6-5.7,14.3-15.2,14.3c-9.6,0-15.2-4.7-15.2-14.3V33.8v0h7.8V56c0,3.9,1,7.7,7.3,7.7c5.6,0,7.4-2.5,7.4-7.7V33.8h7.8v16.5
		c0.6-9.9,7-17.4,17.5-17.4c7.8,0,14.4,4.6,15.4,12.8h-7.6c-0.5-3.5-3.9-6.2-7.8-6.2c-7.1,0-9.7,6-9.7,12.2c0,5.9,2.6,11.9,9.7,11.9
		c4.4,0,7-2.8,7.9-6.9c0.1-0.4,0.2-0.8,0.3-1.1h0c0.6-1.7,1.5-3.2,3-4.5c2.3-2.1,5.8-3.2,10.3-3.2c3.8,0,7,1,9.7,3
		c2.7,2,4.1,4.9,4.2,8.6h-7.1c-0.1-2.1-1.1-3.6-2.9-4.5c-1.2-0.6-2.7-0.9-4.4-0.9c-2,0-3.5,0.4-4.7,1.2c-0.2,0.1-0.4,0.3-0.6,0.4
		l0,0c0,0,0,0-0.1,0v0c-0.8,0.7-1.1,1.7-1.1,2.7c0,0.5,0.1,1,0.3,1.4c0,0,0,0,0,0l0,0c0.3,0.6,0.8,1.1,1.4,1.4
		c0.7,0.4,2.3,0.9,4.7,1.5l6.2,1.5c2.7,0.6,4.8,1.5,6.1,2.6c2,1.6,3,3.8,3.1,6.6V49.3h25.1V49.5z M228.1,153.5H118.4v-35.1V43.9
		h109.6V153.5z"/>
	<polygon class="st0" points="127.7,95 129.8,95 129.8,80.7 135.1,80.7 135.1,78.9 122.3,78.9 122.3,80.7 127.7,80.7 	"/>
	<path class="st0" d="M138.5,88.4c0-0.5,0.1-1,0.2-1.4c0.1-0.4,0.4-0.8,0.6-1.2c0.3-0.3,0.6-0.6,1.1-0.8c0.4-0.2,0.9-0.3,1.5-0.3
		c0.7,0,1.3,0.2,1.7,0.6c0.4,0.4,0.6,1,0.6,1.7V95h1.9v-7.6c0-0.6-0.1-1.2-0.2-1.7c-0.1-0.5-0.3-1-0.7-1.3c-0.3-0.4-0.7-0.7-1.2-0.9
		c-0.5-0.2-1.1-0.3-1.9-0.3c-0.3,0-0.7,0-1.1,0.1c-0.4,0.1-0.7,0.2-1.1,0.3c-0.3,0.2-0.6,0.4-0.9,0.6c-0.3,0.2-0.5,0.6-0.6,0.9h0
		v-6.1h-1.9v16h1.9V88.4z"/>
	<path class="st0" d="M149.9,93.5c0.5,0.5,1,1,1.7,1.3c0.7,0.3,1.5,0.4,2.4,0.4c1.3,0,2.4-0.3,3.3-1c0.9-0.7,1.4-1.6,1.7-2.9h-1.9
		c-0.2,0.8-0.5,1.3-1,1.7c-0.5,0.4-1.2,0.6-2,0.6c-0.6,0-1.2-0.1-1.6-0.3c-0.5-0.2-0.8-0.5-1.1-0.8c-0.3-0.4-0.5-0.8-0.7-1.2
		c-0.1-0.5-0.2-0.9-0.2-1.4h8.7c0-0.7,0-1.4-0.2-2.2c-0.2-0.8-0.4-1.5-0.9-2.2c-0.4-0.7-1-1.2-1.6-1.6c-0.7-0.4-1.5-0.6-2.6-0.6
		c-0.8,0-1.5,0.1-2.2,0.4s-1.2,0.7-1.7,1.3c-0.5,0.5-0.9,1.2-1.1,1.9c-0.3,0.7-0.4,1.5-0.4,2.4c0,0.9,0.2,1.7,0.4,2.4
		C149.1,92.3,149.4,93,149.9,93.5z M150.8,86.8c0.2-0.4,0.4-0.7,0.7-1c0.3-0.3,0.6-0.5,1-0.7c0.4-0.2,0.8-0.3,1.3-0.3
		c0.5,0,0.9,0.1,1.3,0.3c0.4,0.2,0.7,0.4,1,0.7c0.3,0.3,0.5,0.6,0.7,1c0.2,0.4,0.3,0.8,0.3,1.3h-6.7
		C150.5,87.6,150.6,87.2,150.8,86.8z"/>
	<path class="st0" d="M132.9,102.1c-0.7-0.2-1.5-0.3-2.4-0.3c-1.2,0-2.3,0.2-3.3,0.7c-1,0.4-1.7,1-2.4,1.8c-0.6,0.8-1.1,1.7-1.4,2.7
		c-0.3,1-0.5,2.1-0.5,3.3c0,1.2,0.2,2.3,0.5,3.3c0.3,1,0.8,1.9,1.4,2.7c0.6,0.7,1.4,1.3,2.3,1.8c0.9,0.4,2,0.6,3.3,0.6
		c2.1,0,3.7-0.6,4.9-1.7c1.2-1.1,1.9-2.7,2.1-4.7h-2.1c0,0.7-0.2,1.3-0.4,1.8c-0.2,0.6-0.5,1.1-0.9,1.5c-0.4,0.4-0.9,0.7-1.4,1
		c-0.5,0.2-1.2,0.3-1.9,0.3c-1,0-1.8-0.2-2.5-0.5c-0.7-0.4-1.3-0.8-1.7-1.4c-0.4-0.6-0.8-1.3-1-2.1c-0.2-0.8-0.3-1.7-0.3-2.6
		c0-0.8,0.1-1.6,0.3-2.4c0.2-0.8,0.5-1.5,1-2.1c0.4-0.6,1-1.1,1.7-1.4c0.7-0.4,1.5-0.5,2.5-0.5c1.1,0,2.1,0.3,2.9,0.9
		c0.8,0.6,1.3,1.4,1.6,2.6h2.1c-0.1-0.9-0.4-1.6-0.8-2.3c-0.4-0.7-0.9-1.2-1.5-1.6C134.3,102.7,133.6,102.4,132.9,102.1z"/>
	<path class="st0" d="M144.3,106.3c-0.7,0-1.3,0.1-1.9,0.2c-0.6,0.1-1.1,0.4-1.5,0.7c-0.4,0.3-0.8,0.7-1.1,1.2
		c-0.3,0.5-0.4,1.1-0.4,1.8h1.9c0-0.9,0.3-1.4,0.9-1.7c0.5-0.3,1.2-0.5,2-0.5c0.3,0,0.6,0,0.9,0.1c0.3,0,0.6,0.1,0.8,0.3
		c0.2,0.1,0.4,0.3,0.6,0.6c0.2,0.3,0.2,0.6,0.2,1c0,0.4-0.1,0.6-0.3,0.8c-0.2,0.2-0.5,0.3-0.9,0.4c-0.4,0.1-0.8,0.2-1.2,0.2
		c-0.5,0.1-1,0.1-1.5,0.2c-0.5,0.1-1,0.2-1.4,0.3c-0.5,0.1-0.9,0.3-1.3,0.6c-0.4,0.3-0.7,0.6-0.9,1c-0.2,0.4-0.3,1-0.3,1.6
		c0,0.6,0.1,1.1,0.3,1.5c0.2,0.4,0.5,0.7,0.8,1c0.3,0.3,0.8,0.4,1.2,0.6c0.5,0.1,1,0.2,1.5,0.2c0.8,0,1.6-0.1,2.3-0.4
		c0.7-0.3,1.3-0.7,1.8-1.4c0,0.6,0.1,1.1,0.4,1.4c0.3,0.3,0.7,0.4,1.2,0.4c0.6,0,1-0.1,1.4-0.3v-1.5c-0.2,0.1-0.4,0.1-0.6,0.1
		c-0.3,0-0.5-0.1-0.5-0.3c-0.1-0.2-0.1-0.5-0.1-1v-6c0-0.7-0.1-1.2-0.4-1.6c-0.3-0.4-0.6-0.7-1-1c-0.4-0.2-0.9-0.4-1.4-0.5
		C145.4,106.4,144.9,106.3,144.3,106.3z M146.8,114.2c0,0.3-0.1,0.6-0.2,0.9c-0.1,0.3-0.3,0.6-0.6,0.8c-0.3,0.3-0.7,0.5-1.1,0.6
		c-0.4,0.2-1,0.3-1.6,0.3c-0.3,0-0.6,0-0.9-0.1c-0.3-0.1-0.5-0.2-0.7-0.3c-0.2-0.1-0.4-0.3-0.5-0.5c-0.1-0.2-0.2-0.5-0.2-0.8
		c0-0.5,0.1-0.9,0.3-1.1c0.2-0.3,0.5-0.5,0.8-0.6c0.3-0.1,0.7-0.3,1.2-0.3c0.4-0.1,0.9-0.1,1.3-0.2c0.4-0.1,0.8-0.1,1.2-0.2
		c0.4-0.1,0.7-0.2,0.9-0.4V114.2z"/>
	<path class="st0" d="M153.5,108.3L153.5,108.3l0-1.7h-1.8v11.6h1.9V111c0-0.2,0.1-0.5,0.2-0.8s0.3-0.7,0.5-1c0.2-0.3,0.6-0.6,1-0.8
		c0.4-0.2,0.9-0.3,1.4-0.3c0.4,0,0.8,0.1,1.1,0.2c0.3,0.1,0.5,0.3,0.7,0.5c0.2,0.2,0.3,0.5,0.3,0.8c0.1,0.3,0.1,0.7,0.1,1v7.6h1.9
		V111c0-0.9,0.3-1.6,0.8-2.2c0.5-0.5,1.3-0.8,2.2-0.8c0.5,0,0.8,0.1,1.1,0.2c0.3,0.1,0.5,0.3,0.7,0.6c0.2,0.2,0.3,0.5,0.3,0.8
		c0.1,0.3,0.1,0.7,0.1,1v7.6h1.9v-8.5c0-0.6-0.1-1.1-0.3-1.5s-0.4-0.8-0.8-1c-0.3-0.3-0.7-0.5-1.2-0.6c-0.5-0.1-1-0.2-1.6-0.2
		c-0.8,0-1.5,0.2-2.1,0.5c-0.6,0.3-1.1,0.8-1.5,1.5c-0.2-0.7-0.7-1.2-1.2-1.5c-0.6-0.3-1.2-0.4-2-0.4
		C155.6,106.3,154.4,107,153.5,108.3z"/>
	<path class="st0" d="M172.8,116.7L172.8,116.7c0.3,0.3,0.5,0.6,0.8,0.9c0.3,0.2,0.6,0.4,1,0.6c0.3,0.1,0.7,0.2,1,0.3
		c0.4,0.1,0.7,0.1,1,0.1c0.9,0,1.7-0.2,2.3-0.5c0.7-0.3,1.2-0.7,1.7-1.3c0.4-0.5,0.8-1.2,1-1.9c0.2-0.7,0.3-1.5,0.3-2.3
		c0-0.8-0.1-1.6-0.3-2.3c-0.2-0.7-0.6-1.4-1-1.9c-0.4-0.6-1-1-1.7-1.3c-0.7-0.3-1.4-0.5-2.3-0.5c-0.8,0-1.5,0.1-2.2,0.4
		c-0.7,0.3-1.2,0.8-1.5,1.4h0v-1.6h-1.9v16h1.9V116.7z M172.9,110.8c0.1-0.5,0.3-1,0.6-1.4c0.3-0.4,0.7-0.7,1.1-1
		c0.4-0.3,1-0.4,1.6-0.4c0.6,0,1.1,0.1,1.6,0.4s0.8,0.6,1.1,1c0.3,0.4,0.5,0.9,0.7,1.4c0.1,0.5,0.2,1,0.2,1.6c0,0.6-0.1,1.1-0.2,1.7
		c-0.1,0.5-0.3,1-0.6,1.4c-0.3,0.4-0.6,0.8-1.1,1s-1,0.4-1.7,0.4c-0.7,0-1.2-0.1-1.7-0.4c-0.5-0.2-0.8-0.6-1.1-1
		c-0.3-0.4-0.5-0.9-0.6-1.4c-0.1-0.5-0.2-1.1-0.2-1.7C172.7,111.9,172.8,111.3,172.9,110.8z"/>
	<path class="st0" d="M184.6,117.7c0.3,0.3,0.8,0.4,1.2,0.6c0.5,0.1,1,0.2,1.5,0.2c0.8,0,1.6-0.1,2.3-0.4c0.7-0.3,1.3-0.7,1.8-1.4
		c0,0.6,0.1,1.1,0.4,1.4c0.3,0.3,0.7,0.4,1.2,0.4c0.6,0,1-0.1,1.4-0.3v-1.5c-0.2,0.1-0.4,0.1-0.6,0.1c-0.3,0-0.5-0.1-0.5-0.3
		c-0.1-0.2-0.1-0.5-0.1-1v-6c0-0.7-0.1-1.2-0.4-1.6c-0.3-0.4-0.6-0.7-1-1c-0.4-0.2-0.9-0.4-1.4-0.5c-0.5-0.1-1-0.1-1.6-0.1
		c-0.7,0-1.3,0.1-1.9,0.2c-0.6,0.1-1.1,0.4-1.5,0.7c-0.4,0.3-0.8,0.7-1.1,1.2c-0.3,0.5-0.4,1.1-0.4,1.8h1.9c0-0.9,0.3-1.4,0.9-1.7
		c0.5-0.3,1.2-0.5,2-0.5c0.3,0,0.6,0,0.9,0.1c0.3,0,0.6,0.1,0.8,0.3c0.2,0.1,0.4,0.3,0.6,0.6c0.2,0.3,0.2,0.6,0.2,1
		c0,0.4-0.1,0.6-0.3,0.8c-0.2,0.2-0.5,0.3-0.9,0.4c-0.4,0.1-0.8,0.2-1.2,0.2c-0.5,0.1-1,0.1-1.5,0.2c-0.5,0.1-1,0.2-1.4,0.3
		c-0.5,0.1-0.9,0.3-1.3,0.6c-0.4,0.3-0.7,0.6-0.9,1c-0.2,0.4-0.3,1-0.3,1.6c0,0.6,0.1,1.1,0.3,1.5
		C184,117.1,184.3,117.5,184.6,117.7z M185.9,113.9c0.2-0.3,0.5-0.5,0.8-0.6c0.3-0.1,0.7-0.3,1.2-0.3c0.4-0.1,0.9-0.1,1.3-0.2
		c0.4-0.1,0.8-0.1,1.2-0.2c0.4-0.1,0.7-0.2,0.9-0.4v1.9c0,0.3-0.1,0.6-0.2,0.9c-0.1,0.3-0.3,0.6-0.6,0.8c-0.3,0.3-0.7,0.5-1.1,0.6
		c-0.4,0.2-1,0.3-1.6,0.3c-0.3,0-0.6,0-0.9-0.1c-0.3-0.1-0.5-0.2-0.7-0.3c-0.2-0.1-0.4-0.3-0.5-0.5c-0.1-0.2-0.2-0.5-0.2-0.8
		C185.5,114.6,185.6,114.2,185.9,113.9z"/>
	<rect x="196.3" y="102.2" class="st0" width="1.9" height="2.3"/>
	<rect x="196.3" y="106.6" class="st0" width="1.9" height="11.6"/>
	<path class="st0" d="M201.9,116.6c0.4,0.5,1,1,1.6,1.3c0.6,0.3,1.4,0.5,2.3,0.5c0.7,0,1.5-0.2,2.1-0.5c0.7-0.3,1.2-0.9,1.5-1.6h0
		v0.8c0,0.6-0.1,1.2-0.2,1.8c-0.1,0.5-0.3,1-0.6,1.4c-0.3,0.4-0.6,0.7-1.1,0.9c-0.4,0.2-1,0.3-1.6,0.3c-0.3,0-0.6,0-1-0.1
		c-0.3-0.1-0.7-0.2-1-0.3c-0.3-0.2-0.5-0.3-0.7-0.6c-0.2-0.2-0.3-0.5-0.3-0.9H201c0,0.6,0.2,1.2,0.5,1.6c0.3,0.4,0.7,0.8,1.1,1.1
		c0.5,0.3,1,0.5,1.5,0.6c0.6,0.1,1.1,0.2,1.7,0.2c1.9,0,3.2-0.5,4.1-1.4s1.3-2.4,1.3-4.3v-10.6h-1.8v1.7h0c-0.3-0.6-0.8-1.1-1.4-1.4
		c-0.6-0.3-1.3-0.5-2-0.5c-1,0-1.8,0.2-2.5,0.6c-0.7,0.4-1.2,0.9-1.7,1.5c-0.4,0.6-0.7,1.3-0.9,2c-0.2,0.7-0.3,1.4-0.3,2.1
		c0,0.8,0.1,1.5,0.3,2.3C201.1,115.4,201.4,116.1,201.9,116.6z M202.8,110.6c0.1-0.5,0.3-1,0.6-1.3c0.3-0.4,0.6-0.7,1.1-0.9
		c0.4-0.2,1-0.3,1.6-0.3c0.6,0,1.1,0.1,1.5,0.4c0.4,0.2,0.8,0.6,1,1c0.3,0.4,0.5,0.8,0.6,1.3c0.1,0.5,0.2,1,0.2,1.5
		c0,0.5-0.1,1.1-0.2,1.6c-0.1,0.5-0.3,1-0.6,1.4c-0.3,0.4-0.6,0.8-1.1,1c-0.4,0.3-1,0.4-1.6,0.4c-0.6,0-1.2-0.1-1.6-0.4
		c-0.4-0.3-0.8-0.6-1-1s-0.4-0.9-0.5-1.4c-0.1-0.5-0.2-1-0.2-1.6C202.6,111.7,202.6,111.2,202.8,110.6z"/>
	<path class="st0" d="M216,111.7c0-0.5,0.1-1,0.2-1.4c0.1-0.4,0.4-0.8,0.6-1.2c0.3-0.3,0.6-0.6,1.1-0.8c0.4-0.2,0.9-0.3,1.5-0.3
		c0.7,0,1.3,0.2,1.7,0.6c0.4,0.4,0.6,1,0.6,1.7v7.9h1.9v-7.6c0-0.6-0.1-1.2-0.2-1.7c-0.1-0.5-0.3-1-0.7-1.3
		c-0.3-0.4-0.7-0.7-1.2-0.9c-0.5-0.2-1.1-0.3-1.9-0.3c-1.7,0-3,0.7-3.8,2.1h0v-1.8h-1.8v11.6h1.9V111.7z"/>
</g>
</svg>
